<?xml version="1.0" encoding="UTF-8"?>
<svg xmlns="http://www.w3.org/2000/svg" width="256" height="64" viewBox="0 0 256 64">
  <defs>
    <linearGradient id="body" x1="0" y1="0" x2="0" y2="1">
      <stop offset="0" stop-color="#46e0b4"/>
      <stop offset="1" stop-color="#1a8b73"/>
    </linearGradient>
  </defs>

  <!-- Frame 1: impact -->
  <g transform="translate(64,0) scale(-1,1) translate(32,32) rotate(-90) scale(1,0.7) translate(-32,-32)">
    <ellipse cx="30" cy="34" rx="18" ry="10" fill="url(#body)"/>
    <circle cx="46" cy="30" r="6" fill="url(#body)"/>
    <path d="M16 36c-10 4-14 10-14 14" fill="none" stroke="#1a8b73" stroke-width="4" stroke-linecap="round"/>
    <path d="M22 44l6 4" stroke="#165d4b" stroke-width="3" stroke-linecap="round"/>
    <path d="M36 44l6 4" stroke="#165d4b" stroke-width="3" stroke-linecap="round"/>
    <path d="M44 22l6-6" stroke="#ff6f6e" stroke-width="3" stroke-linecap="round"/>
    <path d="M44 16l6 6" stroke="#ff6f6e" stroke-width="3" stroke-linecap="round"/>
  </g>

  <!-- Frame 2: tilt -->
  <g transform="translate(128,0) scale(-1,1) translate(32,32) rotate(-90) scale(1,0.7) translate(-32,-32)">
    <ellipse cx="30" cy="34" rx="16" ry="9" fill="url(#body)" opacity="0.9"/>
    <circle cx="44" cy="30" r="5" fill="url(#body)" opacity="0.9"/>
    <path d="M14 36c-8 4-12 10-12 14" fill="none" stroke="#1a8b73" stroke-width="4" stroke-linecap="round" opacity="0.9"/>
  </g>

  <!-- Frame 3: shrink -->
  <g transform="translate(192,0) scale(-1,1) translate(32,32) rotate(-90) scale(1,0.7) translate(-32,-32)">
    <ellipse cx="30" cy="34" rx="13" ry="7" fill="url(#body)" opacity="0.65"/>
    <circle cx="42" cy="30" r="4" fill="url(#body)" opacity="0.65"/>
    <path d="M18 36c-6 4-8 8-8 12" fill="none" stroke="#1a8b73" stroke-width="3" stroke-linecap="round" opacity="0.6"/>
  </g>

  <!-- Frame 4: fade -->
  <g transform="translate(256,0) scale(-1,1) translate(32,32) rotate(-90) scale(1,0.7) translate(-32,-32)">
    <ellipse cx="30" cy="34" rx="10" ry="6" fill="url(#body)" opacity="0.3"/>
    <circle cx="40" cy="30" r="3" fill="url(#body)" opacity="0.3"/>
    <path d="M20 36c-4 4-6 6-6 10" fill="none" stroke="#1a8b73" stroke-width="2" stroke-linecap="round" opacity="0.3"/>
  </g>
</svg>
