<svg xmlns="http://www.w3.org/2000/svg" width="46" height="150" viewBox="0 0 46 150" fill="none">
  <defs>
    <linearGradient id="ice-outline" x1="0" y1="0" x2="0" y2="150" gradientUnits="userSpaceOnUse">
      <stop offset="0" stop-color="#eefcff" stop-opacity="0.95" />
      <stop offset="0.5" stop-color="#bfeaff" stop-opacity="0.8" />
      <stop offset="1" stop-color="#6dbdf5" stop-opacity="0.65" />
    </linearGradient>
    <linearGradient id="ice-dim" x1="0" y1="0" x2="0" y2="150" gradientUnits="userSpaceOnUse">
      <stop offset="0" stop-color="#ffffff" stop-opacity="0.4" />
      <stop offset="1" stop-color="#7ccfff" stop-opacity="0.22" />
    </linearGradient>
  </defs>
  <path
    d="M23 2
       L29 4 L35 3 L41 7 L38 14 L42 20
       L36 30 L34 44 L30 60 L28 76 L26 92
       L23 146
       L20 112 L18 92 L16 76 L14 60 L12 44
       L8 30 L4 20 L8 14 L5 7 L11 3 L17 4 Z"
    fill="url(#ice-dim)"
    stroke="url(#ice-outline)"
    stroke-width="2"
    stroke-linejoin="round"
  />
  <path
    d="M18.5 16 L20 36 L19 80 L18 122 L16.5 80 L15 36 Z"
    stroke="#ffffff"
    stroke-opacity="0.45"
    stroke-width="1.6"
    stroke-linecap="round"
    fill="none"
  />
</svg>
