<svg xmlns="http://www.w3.org/2000/svg" width="46" height="150" viewBox="0 0 46 150" fill="none">
  <defs>
    <linearGradient id="ice-body" x1="0" y1="0" x2="0" y2="150" gradientUnits="userSpaceOnUse">
      <stop offset="0" stop-color="#f8feff" />
      <stop offset="0.28" stop-color="#e3f7ff" />
      <stop offset="1" stop-color="#5dbdf6" />
    </linearGradient>
    <linearGradient id="ice-core" x1="0" y1="0" x2="0" y2="150" gradientUnits="userSpaceOnUse">
      <stop offset="0" stop-color="#ffffff" stop-opacity="0.98" />
      <stop offset="0.5" stop-color="#c4f0ff" stop-opacity="0.86" />
      <stop offset="1" stop-color="#73c9ff" stop-opacity="0.78" />
    </linearGradient>
    <linearGradient id="ice-shine" x1="0" y1="0" x2="46" y2="0" gradientUnits="userSpaceOnUse">
      <stop offset="0" stop-color="#ffffff" stop-opacity="0.95" />
      <stop offset="0.45" stop-color="#ffffff" stop-opacity="0.25" />
      <stop offset="1" stop-color="#ffffff" stop-opacity="0" />
    </linearGradient>
  </defs>
  <!-- Angular, jagged top and irregular edges -->
  <path
    d="M23 2
       L29 4 L35 3 L41 7 L38 14 L42 20
       L36 30 L34 44 L30 60 L28 76 L26 92
       L23 146
       L20 112 L18 92 L16 76 L14 60 L12 44
       L8 30 L4 20 L8 14 L5 7 L11 3 L17 4 Z"
    fill="url(#ice-body)"
  />
  <path
    d="M23 7
       L28 8 L34 7 L38 10 L36 16 L39 22
       L34 30 L31 44 L28 60 L26 76 L24 92
       L23 136
       L22 114 L20 92 L18 76 L16 60 L14 44
       L11 30 L7 22 L10 16 L8 10 L12 7 L18 8 Z"
    fill="url(#ice-core)"
  />
  <path
    d="M18 14 L20 34 L19 78 L18 118 L16.5 78 L15 34 Z"
    fill="url(#ice-shine)"
  />
  <path
    d="M23 3
       L30 5 L36 4 L42 8 L39 15 L43 21
       L37 31 L35 46 L31 62 L29 78 L27 94
       L23 147
       L19 114 L17 94 L15 78 L13 62 L11 46
       L7 31 L3 21 L7 15 L4 8 L10 4 L16 5 Z"
    stroke="#def6ff"
    stroke-opacity="0.95"
    stroke-width="1.4"
    stroke-linejoin="round"
    fill="none"
  />
</svg>
